PathFileType	3	(X/Y/Z)	D:\Vicon Database\Healthy Subjects\S0040\Jan. 30, 2020\Force Plate Walk 3.trc
DataRate	CameraRate	NumFrames	NumMarkers	Units	OrigDataRate	OrigDataStartFrame	OrigNumFrames
100.0	100.0	4	53	mm	100.0	515	290	
Frame#	Time	right_foot_cluster2			right_foot_cluster3			sternum_cluster1			sternum_cluster2			sternum_cluster3			left_asis			right_asis			left_psis			right_psis			sacrum_cluster1			sacrum_cluster2			sacrum_cluster3			left_lat_femoral_epicondyle			left_anterior_thigh15			left_anterior_thigh25			left_anterior_thigh50			left_lateral_thigh25			left_lateral_thigh50			left_thigh_cluster1			left_thigh_cluster2			left_thigh_cluster3			left_fibular_head			left_tibial_tuberosity			left_anterior_shank30			left_lateral_malleolus			left_shank_cluster1			left_shank_cluster2			left_shank_cluster3			left_heel			left_metatarsal2			left_foot_cluster1			left_foot_cluster2			left_foot_cluster3			right_lat_femoral_epicondyle			right_anterior_thigh15			right_anterior_thigh25			right_anterior_thigh50			right_lateral_thigh25			right_lateral_thigh50			right_thigh_cluster1			right_thigh_cluster2			right_thigh_cluster3			right_fibular_head			right_tibial_tuberosity			right_lateral_distal_shank			right_anterior_shank30			right_lateral_malleolus			right_shank_cluster1			right_shank_cluster2			right_shank_cluster3			right_heel			right_metatarsal2			right_foot_cluster1			
		X1	Y1	Z1	X2	Y2	Z2	X3	Y3	Z3	X4	Y4	Z4	X5	Y5	Z5	X6	Y6	Z6	X7	Y7	Z7	X8	Y8	Z8	X9	Y9	Z9	X10	Y10	Z10	X11	Y11	Z11	X12	Y12	Z12	X13	Y13	Z13	X14	Y14	Z14	X15	Y15	Z15	X16	Y16	Z16	X17	Y17	Z17	X18	Y18	Z18	X19	Y19	Z19	X20	Y20	Z20	X21	Y21	Z21	X22	Y22	Z22	X23	Y23	Z23	X24	Y24	Z24	X25	Y25	Z25	X26	Y26	Z26	X27	Y27	Z27	X28	Y28	Z28	X29	Y29	Z29	X30	Y30	Z30	X31	Y31	Z31	X32	Y32	Z32	X33	Y33	Z33	X34	Y34	Z34	X35	Y35	Z35	X36	Y36	Z36	X37	Y37	Z37	X38	Y38	Z38	X39	Y39	Z39	X40	Y40	Z40	X41	Y41	Z41	X42	Y42	Z42	X43	Y43	Z43	X44	Y44	Z44	X45	Y45	Z45	X46	Y46	Z46	X47	Y47	Z47	X48	Y48	Z48	X49	Y49	Z49	X50	Y50	Z50	X51	Y51	Z51	X52	Y52	Z52	X53	Y53	Z53	
515	5.14	624.35925	98.440102	-202.77074	623.23523	101.19562	-239.96414	371.44003	1429.1299	-164.45189	362.15155	1400.6367	-155.39154	358.47702	1404.4163	-192.92914	403.62738	1058.9548	-50.664059	391.62271	1055.58	-298.46121	566.46759	1071.9919	-100.23743	561.28625	1076.6445	-218.35161	572.95355	1131.6503	-165.89525	578.44427	1106.688	-178.4639	583.04327	1100.4297	-139.83868	277.58734	563.86426	-17.149502	219.02908	670.34937	-62.474258	244.25182	755.31561	-52.602291	309.67029	875.33484	-43.691269	343.11877	701.24316	5.3869214	401.73267	839.27856	27.378031	384.19861	795.68903	34.116737	375.22577	767.07874	31.621284	345.40451	790.17462	36.771275	247.53874	491.72696	-8.8105984	190.55556	495.40775	-61.755402	152.10287	247.19394	-68.435997	167.79562	119.6405	-37.537281	177.35361	442.90863	-89.300827	166.78828	417.30875	-80.113762	180.39946	413.18524	-116.32137	227.10912	64.143974	-79.472336	19.773237	131.84511	-67.532936	89.904724	160.71455	-61.494324	62.702843	151.04694	-51.315865	59.342957	159.50768	-88.53936	584.03827	534.40735	-293.82086	479.60385	594.67267	-234.40306	432.23495	667.4541	-236.0289	387.00079	793.21991	-256.08157	528.16754	684.33899	-322.8855	483.65051	822.9433	-356.00281	506.07568	774.55884	-359.34958	501.55472	746.81689	-353.6398	540.06781	754.89838	-350.57877	614.58899	472.41043	-294.67786	567.21796	450.01721	-247.36205	701.02228	215.48129	-272.04932	652.75781	217.68192	-225.75278	731.92535	113.78757	-254.17603	595.32892	392.33661	-191.32326	607.83423	367.04749	-183.77965				814.93396	90.950226	-221.38187	596.98773	60.977833	-212.5643	645.86169	115.61427	-211.92694
516	5.15	622.55542	98.483246	-202.78198	621.33533	101.23062	-240.04654	355.37054	1426.4706	-163.81525	346.17804	1397.9666	-154.73982	342.37143	1401.7428	-192.26665	387.78079	1056.4938	-49.884159	375.95108	1052.7853	-297.827	550.81464	1069.6327	-99.499702	545.67108	1074.483	-217.84691	557.29663	1129.1381	-165.15025	562.73077	1104.2329	-177.89236	567.62079	1098.2639	-138.82281	263.06125	560.63818	-17.165022	205.91554	665.58728	-61.794468	230.47063	750.27484	-51.26461	294.0589	871.46338	-42.111534	330.19641	697.40039	6.212358	387.25729	836.33356	28.276299	370.52371	792.38422	35.382061	361.63309	763.77753	33.137348	331.6413	786.55237	38.293716	229.31741	489.93021	-8.9388838	173.263	495.45496	-63.221844	123.69601	249.58139	-67.94352	132.5032	121.49133	-36.445629	158.19313	443.73889	-89.998795	146.19443	418.78763	-80.854126	160.14932	413.71002	-116.87038	189.42659	62.440746	-77.525932	-14.12323	141.0424	-68.278412	57.34383	166.18687	-61.474506	29.550774	157.99467	-51.605885	27.370085	166.12495	-89.040794	575.65723	534.70032	-293.1637	469.33728	593.14325	-234.26189	420.97089	664.99957	-235.60178	373.61484	790.18103	-255.96368	517.09521	683.6676	-322.34656	470.8306	821.41882	-355.39902	493.71423	773.55066	-359.00171	490.6283	745.85541	-352.32813	526.66058	754.46436	-350.03867	608.29523	473.51538	-293.83099	560.15363	449.92545	-246.89546	697.97101	217.62505	-271.87363	649.12964	218.92731	-225.70146	729.93878	116.36955	-254.09904	589.03107	392.54013	-190.98138	601.8952	367.48199	-183.47722				812.95398	94.251381	-221.35286	595.99261	60.46645	-212.55595	643.54578	116.03391	-211.99991
517	5.16	620.43066	98.535042	-202.90387	619.21552	101.05307	-240.26392	339.22162	1423.7295	-163.14336	329.98773	1395.2754	-154.06335	326.28055	1398.9987	-191.61475	371.71341	1054.0393	-49.013332	359.95151	1050.0516	-297.11453	534.83142	1067.1521	-98.742752	529.47803	1071.8237	-216.91045	541.44635	1126.6879	-164.40359	546.73798	1101.5847	-177.09326	551.58447	1095.632	-138.16324	248.45001	557.27533	-17.468946	192.67114	660.92181	-61.475971	216.52766	745.14856	-50.06855	278.2338	867.63422	-40.408306	316.38425	693.7243	6.7364001	372.45084	833.28156	29.478546	355.94165	789.11755	37.087612	347.40149	760.24152	34.566025	317.5737	782.6889	39.994732	211.60141	488.21335	-9.2715893	156.48088	495.23315	-64.315254	97.235016	251.8259	-67.377716	100.32861	123.45988	-35.721348	139.36548	444.36334	-90.538673	126.41166	419.88248	-81.410316	140.38368	414.09726	-117.20154	154.60561	61.277721	-76.055038	-45.043633	149.70566	-68.848885	27.573696	171.412	-61.777111	-0.65343171	164.57129	-52.070698	-2.3864949	173.25984	-89.272881	566.28131	534.93982	-292.61203	459.19785	591.36871	-233.62491	408.3587	662.6731	-235.56184	359.72974	787.21564	-255.80243	505.27255	682.81317	-321.94592	457.08643	819.8208	-355.03644	480.65884	772.34961	-358.55038	478.03494	744.57129	-351.84448	514.73688	753.84259	-349.29626	600.29285	474.24759	-293.09064	552.22253	449.64667	-246.51898	694.26172	219.8941	-271.72324	645.17133	220.2314	-225.76347	727.72693	118.8819	-254.11581	581.90076	392.64435	-190.68147	595.18811	367.77557	-183.2469				810.76514	97.854416	-221.48277	594.87805	59.935268	-212.57571	641.19	116.42999	-212.14769
518	5.17	618.07794	98.526985	-203.10738	616.89111	100.87946	-240.47487	322.97845	1421.0796	-162.41153	313.81705	1392.5706	-153.32761	310.00989	1396.3268	-190.83635	355.38449	1051.6405	-48.034985	343.89279	1047.3369	-296.36832	518.48309	1064.3051	-97.982773	513.38873	1069.3732	-215.97731	525.31439	1124.0081	-163.52824	530.66656	1099.0676	-176.10291	535.37646	1092.9807	-137.33238	233.2982	553.86859	-17.797239	179.11769	657.10236	-61.135735	202.09154	740.53448	-49.052414	262.12009	864.06769	-38.683678	301.41138	690.40576	6.9425693	356.63397	830.62201	30.927584	340.5246	785.85864	38.398655	332.15982	756.8418	35.680569	301.96173	779.42621	42.34586	194.61954	486.11639	-9.4349146	139.7155	495.0004	-65.195671	72.533669	253.70428	-67.06559	71.299576	125.35027	-35.551022	121.0259	444.67603	-90.891457	107.24847	420.55957	-81.823044	121.1324	414.29251	-117.49156	123.06139	60.473381	-74.91246	-72.713387	157.23044	-69.464005	0.66107434	176.04732	-62.469078	-27.788252	170.47305	-52.786423	-29.258127	178.99025	-89.869675	555.83124	534.8847	-292.31598	447.57291	589.53516	-233.36176	394.20093	660.36761	-235.76154	345.3577	784.38654	-255.51459	492.71463	681.73737	-321.56805	442.8479	818.21014	-354.41672	467.15851	771.07086	-357.89868	464.62878	743.19971	-351.34445	501.00714	752.8316	-348.86902	591.20251	474.92892	-292.83112	543.70117	448.99579	-246.05307	689.82861	222.25359	-271.70267	641.23401	221.42021	-226.22321	725.48285	122.0294	-254.16931	573.9339	392.50635	-190.44099	587.69379	367.95432	-183.09061				808.40997	102.75162	-221.25177	593.61914	59.316708	-212.70607	638.43152	116.93736	-212.43184
